<?xml version="1.0" encoding="utf-8"?>
<!-- Generator: Adobe Illustrator 21.1.0, SVG Export Plug-In . SVG Version: 6.00 Build 0)  -->
<svg version="1.1" id="Ebene_1" xmlns="http://www.w3.org/2000/svg" xmlns:xlink="http://www.w3.org/1999/xlink" x="0px" y="0px"
	 viewBox="0 0 246 95" style="enable-background:new 0 0 246 95;" xml:space="preserve">
<style type="text/css">
	.st0{fill:#2CE8B5;}
</style>
<g>
	<path class="st0" d="M45.8,11.2c0.9-1.2,1.9-2.1,3.1-2.8C50,7.7,51,7.5,51.8,7.6c0.8,0.1,1.1,0.7,1.2,1.7c0,1-0.6,2.5-1.9,4.6
		c-1.6,2.7-3.4,5.9-5.5,9.8c-2.1,3.9-4.3,8.1-6.6,12.5c2,0.6,4.2,0.4,6.5-0.5c2.3-0.9,4.7-2.5,7.2-4.8c2.5-2.2,5-5.1,7.5-8.5
		c2.5-3.4,4.9-7.4,7.2-11.9c1.7-3.4,3.6-5.8,5.8-7.1c2.1-1.4,4-1.9,5.5-1.5c1.5,0.3,2.6,1.4,3.1,3.3c0.5,1.9,0,4.3-1.5,7.3
		c-1.6,3.3-3.8,6.5-6.4,9.5c-2.6,3-5.5,5.8-8.5,8.2c-3.1,2.4-6.2,4.5-9.5,6.2c-3.3,1.7-6.4,2.9-9.3,3.5c0.3,0.3,0.6,0.6,0.8,1
		c0.2,0.4,0.5,0.8,0.8,1.3c0.8,1.6,1.3,3.5,1.4,5.8c0.1,2.3,0.2,4.8,0.1,7.3c-0.1,2.5-0.2,5-0.4,7.5c-0.2,2.4-0.1,4.6,0.1,6.3
		c0.2,1.8,0.8,3.1,1.6,3.9c0.8,0.8,2.2,0.9,4.1,0.3c1.1-0.4,1.7-0.4,1.9,0s0,1.1-0.4,1.9c-0.5,0.8-1.2,1.6-2.3,2.5
		c-1.1,0.9-2.3,1.6-3.7,2.1c-1.4,0.5-3,0.7-4.6,0.7c-1.7-0.1-3.4-0.7-5.1-1.8c-2-1.3-3.3-3.1-4-5.3c-0.7-2.3-1-4.8-0.9-7.5
		c0.1-2.7,0.4-5.5,0.9-8.3c0.5-2.8,1-5.5,1.3-7.9c0.4-2.4,0.5-4.5,0.4-6.2c-0.1-1.7-0.8-2.7-1.9-3.2c-1.7,3.2-3.4,6.4-5.1,9.5
		c-1.7,3.1-3.3,6.1-4.9,8.9c-1.6,2.8-3.1,5.3-4.6,7.5c-1.4,2.2-2.8,4.1-4,5.5c-2.2,2.5-4.4,4.1-6.7,4.7c-2.3,0.6-4.2,0.4-5.7-0.6
		c-1.5-1-2.3-2.7-2.5-5c-0.2-2.3,0.7-5.1,2.7-8.5c1.6-2.6,3.6-5.3,6-8c2.4-2.7,4.9-5.6,7.6-8.5c2.7-3,5.5-6.1,8.4-9.5
		c2.9-3.4,5.7-7,8.3-10.9c-1.8,1.1-3.6,2.4-5.6,3.9c-2,1.5-4,3-6,4.6c-2,1.6-4,3.1-5.9,4.7c-1.9,1.5-3.7,2.9-5.3,4.2
		c-2.2,1.8-4.2,2.6-5.9,2.5c-1.7-0.1-2.9-0.7-3.6-1.9c-0.7-1.2-0.8-2.7-0.2-4.6c0.6-1.9,2-3.8,4.2-5.7c2.4-1.9,5.1-3.5,8.4-4.8
		c3.2-1.3,6.6-2.7,10.1-4.1c3.5-1.4,6.9-3.1,10.3-5.1C40.1,17.3,43.2,14.6,45.8,11.2z"/>
	<path class="st0" d="M65,36.8c2.6-1.4,5-2.1,7.1-2.3c2.1-0.1,4,0.2,5.5,0.9c1.5,0.7,2.7,1.8,3.4,3.2c0.8,1.4,1.1,2.9,1,4.6
		c-0.1,1.7-0.7,3.4-1.8,5.1c-1.1,1.7-2.8,3.3-5,4.7c-1.5,0.9-3.2,1.6-5,2.2c-1.8,0.5-3.8,0.8-5.9,0.7c1,1.5,2.3,2.4,4.1,2.8
		c1.8,0.4,3.6,0.4,5.7,0c2-0.4,4.1-1.2,6.2-2.4c2.1-1.2,4-2.6,5.8-4.4c0.8-0.8,1.6-1.2,2.4-1.3c0.8-0.1,1.4,0.1,1.8,0.5
		c0.4,0.4,0.6,1,0.5,1.7c-0.1,0.8-0.6,1.6-1.4,2.4c-0.8,0.8-2,1.9-3.5,3.3c-1.5,1.4-3.2,2.7-5.1,3.9c-1.9,1.3-4,2.4-6.3,3.3
		S69.8,67,67.3,67c-3,0-5.5-0.6-7.4-1.7c-1.9-1.1-3.3-2.6-4.3-4.5c-0.9-1.8-1.4-3.9-1.4-6.2c0-2.3,0.4-4.5,1.3-6.8
		c0.8-2.2,2.1-4.3,3.7-6.3C60.8,39.6,62.7,38.1,65,36.8z M68.7,42.7c-1.4,0.8-2.6,2-3.7,3.4c-1.1,1.4-1.8,3-2,4.8
		c1.9,0.2,3.6,0.1,5.3-0.4c1.6-0.5,3-1.2,4.2-2.2c1.3-1.1,2.1-2.1,2.4-3.2c0.3-1,0.2-1.9-0.2-2.5c-0.4-0.6-1.1-1-2.2-1.1
		C71.4,41.5,70.2,41.9,68.7,42.7z"/>
	<path class="st0" d="M96.1,37.8c1.1-0.9,2.3-1.6,3.5-2c1.3-0.5,2.3-0.6,3.2-0.6c0.9,0.1,1.4,0.4,1.7,1c0.2,0.6-0.1,1.5-1,2.7
		c-0.9,1.2-2,2.7-3.2,4.4c-1.2,1.7-2.3,3.4-3.2,5.1c-0.9,1.7-1.5,3.3-1.8,4.7c-0.3,1.4,0.1,2.5,1,3.2c0.9,0.7,2.1,0.8,3.5,0.2
		c1.4-0.6,3.1-1.8,5.1-3.5l7.2-13c1.1-2,2.3-3.3,3.5-4c1.2-0.7,2.2-0.9,3-0.6c0.8,0.2,1.5,0.8,1.8,1.8c0.4,1,0.3,2.1-0.3,3.4
		c-0.7,1.5-1.6,3.2-2.9,5c-1.3,1.8-2.8,3.7-4.4,5.5c-0.7,1.9-1.4,3.9-2.2,5.9c-0.8,2-1.6,4-2.5,6c3.3-1.8,6-3.7,8.2-5.7
		c2.2-2,4.1-3.7,5.7-5.3c0.8-0.8,1.6-1.3,2.4-1.4c0.7-0.1,1.3,0.1,1.7,0.6c0.4,0.5,0.5,1.1,0.5,1.8c-0.1,0.8-0.5,1.5-1.3,2.2
		c-3.8,3.8-7.4,6.9-10.8,9.2c-3.4,2.3-6.6,4.1-9.7,5.5c-1.6,2.9-3.3,5.6-5.1,8.2c-1.8,2.6-3.7,4.9-5.6,6.8c-1.9,2-3.9,3.5-5.9,4.6
		c-2,1.1-4.1,1.7-6.1,1.7c-2.1,0-3.8-0.4-5.2-1.3c-1.4-0.8-2.4-1.9-3.1-3.3c-0.6-1.3-0.8-2.8-0.5-4.5c0.3-1.7,1.1-3.3,2.4-4.9
		c1.3-1.6,3.3-3.2,5.8-4.6c2.5-1.4,5.7-2.6,9.6-3.4c0.8-0.2,1.7-0.5,2.5-0.6c0.8-0.2,1.7-0.4,2.4-0.7l3.5-5.6
		c-1.9,1.1-3.6,1.9-5.3,2.4c-1.7,0.5-3.1,0.5-4.3,0.1c-2.4-0.7-3.9-2.1-4.5-4.2s-0.6-4.4,0-7.1c0.7-2.7,2-5.4,3.8-8.2
		C91.1,42.5,93.4,40,96.1,37.8z M82.3,83.7c1.1,0,2.5-0.9,4.1-2.7c1.7-1.8,3.5-4.1,5.4-6.8l-1.9,0.5c-2.5,0.7-4.4,1.5-5.8,2.5
		c-1.4,1-2.4,2-3,2.9c-0.6,1-0.7,1.8-0.5,2.5C80.9,83.3,81.4,83.7,82.3,83.7z"/>
	<path class="st0" d="M153.2,8.1c2.8,0,4.6,1.2,5.5,3.6c0.9,2.4,0.5,5.7-1.1,9.7s-4.7,8.9-9.2,14.3c-4.5,5.5-10.7,11.2-18.7,17.3
		c0.3,1.2,0.7,2.1,1.3,2.7c1,1.3,2.3,2.1,3.7,2.3c1.4,0.2,2.9,0,4.4-0.5c1.5-0.5,3-1.3,4.5-2.4c1.5-1.1,2.8-2.1,3.9-3.2
		c1-1,1.8-1.5,2.6-1.6c0.8-0.1,1.3,0.1,1.7,0.5c0.4,0.5,0.5,1.1,0.4,1.9s-0.6,1.6-1.4,2.4c-3.3,3.3-6.3,5.8-9,7.6
		c-2.7,1.8-5.2,3-7.4,3.6c-2.2,0.6-4.3,0.7-6.1,0.3s-3.4-1.2-4.8-2.4c-1.9-1.6-3.1-3.8-3.6-6.8c-0.5-2.9-0.2-6.5,1-10.6
		c0.6-2.1,1.6-4.5,2.9-7.3c1.3-2.7,2.8-5.6,4.6-8.4c1.8-2.9,3.7-5.7,5.8-8.5c2.1-2.8,4.2-5.2,6.4-7.4c2.2-2.1,4.4-3.9,6.5-5.2
		C149.3,8.8,151.3,8.1,153.2,8.1z M150,18.6c-0.5-0.4-1.3-0.2-2.3,0.5c-1.1,0.7-2.2,1.7-3.6,3.1c-1.3,1.4-2.7,3.1-4.2,5.1
		c-1.5,2-2.9,4.1-4.3,6.3c-1.4,2.2-2.6,4.5-3.6,6.8c-1,2.3-1.8,4.5-2.2,6.7c2.5-2.2,5.2-4.7,7.9-7.7c2.7-3,5.1-5.9,7.2-8.7
		c2.1-2.8,3.6-5.4,4.7-7.6C150.7,20.8,150.8,19.4,150,18.6z"/>
	<path class="st0" d="M150.3,64.9c-2.1-2-3.3-4.3-3.4-7c-0.2-2.7,0.3-5.3,1.4-7.9c1.1-2.6,2.6-5.1,4.7-7.4c2-2.3,4.2-4.2,6.6-5.7
		c2.4-1.4,4.7-2.3,7.1-2.5c2.4-0.2,4.4,0.4,6.2,2c0.5-0.5,1.1-0.7,1.9-0.8c0.8,0,1.8,0.3,3,1c0.9,0.5,1.8,1.1,2.7,1.6
		c0.9,0.5,1.9,1,2.9,1.4c1.1,0.4,2.3,0.8,3.7,1c1.4,0.3,3,0.5,4.8,0.7c0.9,0.1,1.5,0.3,1.9,0.8c0.3,0.5,0.4,1,0.3,1.5
		c-0.2,0.5-0.5,1-1.1,1.5c-0.6,0.5-1.3,0.7-2.2,0.8c-1.8,0.1-3.5,0.1-4.9,0c-1.5-0.1-2.8-0.3-3.9-0.5c-1.1-0.2-2.1-0.5-2.9-0.9
		c-0.8-0.3-1.5-0.6-2-0.9c-0.1,2.3-0.6,4.6-1.5,7c-0.9,2.4-2.1,4.6-3.5,6.6c-1.5,2.1-3.1,3.9-4.9,5.5c-1.8,1.6-3.7,2.8-5.6,3.6
		c-1.9,0.8-3.8,1.1-5.7,1C153.6,67.3,151.9,66.4,150.3,64.9z M157.7,57.3c0.8,1,2,1.2,3.4,0.5c1.5-0.7,2.9-1.8,4.4-3.5
		c1.5-1.7,2.8-3.6,4-5.9c1.2-2.3,1.9-4.5,2.1-6.7c-1.1-1.2-2.4-1.8-3.6-1.7s-2.5,0.6-3.8,1.5c-1.2,0.9-2.4,2.1-3.4,3.6
		c-1.1,1.5-1.9,3-2.6,4.6c-0.7,1.6-1.1,3.1-1.2,4.4C156.9,55.5,157.1,56.6,157.7,57.3z"/>
	<path class="st0" d="M199.5,68.5c-1.6,3.4-3.3,6.6-5.1,9.6c-1.8,3-3.7,5.7-5.7,7.9c-2,2.3-4.1,4.1-6.3,5.4c-2.2,1.4-4.5,2-7,2
		c-1.8,0-3.4-0.5-4.7-1.5c-1.3-1-2.2-2.3-2.7-3.8c-0.5-1.5-0.5-3.3,0-5.3c0.5-2,1.6-3.9,3.4-5.8c1.8-1.9,4.3-3.7,7.4-5.4
		c3.2-1.7,7.2-3.1,12.2-4.2l1.1-0.3c0.5-1,1.1-2.1,1.6-3.2c0.5-1.1,1-2.2,1.4-3.4c-2.8,2.2-5.5,3.5-8.1,4.1
		c-2.6,0.5-4.8,0.1-6.5-1.3c-1.3-1-2.2-2.4-2.5-4.2c-0.3-1.8-0.2-3.7,0.3-5.8c0.5-2.1,1.5-4.2,2.8-6.3c1.3-2.1,3-4.1,4.9-5.8
		c2-1.8,4.2-3.2,6.7-4.4c2.5-1.1,5.2-1.8,8.1-1.9c2.1-0.1,3.8,0.1,5.1,0.6c1.3,0.5,2.2,1.2,2.7,2.1c0.7-0.2,1.4-0.3,2.1-0.2
		c0.7,0,1.3,0.2,1.8,0.5c0.5,0.3,0.7,0.8,0.8,1.4s-0.1,1.4-0.7,2.4c-1.6,3-3.2,6.2-4.8,9.6c-1.6,3.4-3.2,6.9-4.9,10.4L199.5,68.5z
		 M176.8,83.7c1.3,0,3.1-1,5.3-3c2.2-2,4.4-4.7,6.7-8c-3.3,0.9-6,2-8,3.2c-2,1.2-3.4,2.4-4.3,3.6c-0.9,1.1-1.3,2.1-1.1,2.9
		S176,83.7,176.8,83.7z M188,56.8c0.7,1,1.9,1.2,3.7,0.6c1.8-0.6,3.6-1.8,5.6-3.5c0.7-2.2,1.4-4.1,2-5.6c0.6-1.5,1.2-2.7,1.8-3.7
		c0.5-1,1.1-1.7,1.5-2.3c0.5-0.6,1-1.1,1.5-1.6c-2.7,0.5-5.1,1.4-7.3,2.8c-2.2,1.4-4.1,2.9-5.6,4.5c-1.5,1.7-2.5,3.3-3.1,4.9
		C187.4,54.5,187.4,55.8,188,56.8z"/>
	<path class="st0" d="M235.5,33.8c1.9,0,3.2,0.5,4,1.4c0.8,1,1.1,2,1,3c-0.2,1-0.8,1.8-1.9,2.4c-1.1,0.6-2.5,0.5-4.3-0.3
		c-0.5,0.7-0.8,1.7-0.9,2.9c0,1.2,0,2.5,0.2,4c0.2,1.5,0.3,3.1,0.5,4.8c0.2,1.7,0.1,3.5-0.1,5.2c-0.2,1.8-0.7,3.5-1.5,5.3
		c-0.8,1.8-1.9,3.4-3.6,5c-1.5,1.4-3.2,2.3-5.3,2.7c-2.1,0.4-4.2,0.3-6.2-0.2c-2-0.5-3.8-1.5-5.3-2.8c-1.5-1.4-2.5-3.1-2.9-5.3
		c-0.2-1-0.3-1.1-0.1-1.9c0.2-0.8-13.5,15.6-13,15c-0.4-0.4-0.6-1.7-0.6-2.3c-0.1-0.6,0.2-1.2,0.7-1.8c2.5-2.5,18.7-21.8,20.6-23.8
		c1.8-2,3.5-3.7,4.9-5.2c1.4-1.5,2.8-2.7,3.9-3.8c1.2-1.1,2.4-1.9,3.7-2.7c1-0.7,2-1.1,3-1.4C233.2,33.9,234.2,33.8,235.5,33.8z
		 M228.1,41.8c-1.3,0.8-2.9,2.4-4.8,4.6c-1.9,2.2-4.3,4.9-7.4,8.2c0.8,0.1,1.6,0.5,2.2,1c0.6,0.5,0.9,1.3,1,2.4
		c0,0.8,0.2,1.4,0.5,1.9c0.3,0.5,0.7,0.9,1.2,1.1c0.5,0.2,1,0.3,1.5,0.2s1.1-0.4,1.5-0.9c1.1-1,1.8-2.3,2.2-3.8
		c0.4-1.5,0.6-3,0.7-4.7c0.1-1.6,0.2-3.3,0.4-5.1C227.2,45.1,227.6,43.4,228.1,41.8z"/>
</g>
</svg>
