<?xml version="1.0" encoding="utf-8"?>
<!-- Generator: Adobe Illustrator 21.1.0, SVG Export Plug-In . SVG Version: 6.00 Build 0)  -->
<svg version="1.1" id="Ebene_1" xmlns="http://www.w3.org/2000/svg" xmlns:xlink="http://www.w3.org/1999/xlink" x="0px" y="0px"
	 viewBox="0 0 600 250" style="enable-background:new 0 0 600 250;" xml:space="preserve">
<style type="text/css">
	.st0{fill:#FF0000;}
	.st1{fill:#2CE8B5;}
</style>
<g>
	<path class="st0" d="M94.7,106.5c3,4.5,3.3,10,1.8,15c-6.5,24.2-26.1,49.6-12,74.4c7.3,12.7,29.2,12.7,38.2,3
		c6.8-7.2-6.5,1.8-8.9-10.7c-4.9-25.8,20.4-53.2,7.5-83.2c33.5-22.7,71.2-41.6,92.1-79.3c2.5-4.5,3.7-10.6,1.3-15.4
		c-2.9-6-8.8-9.7-16-8c-5.4,1.3-10.1,4.9-13.6,8.8c-25.5,29.1-49.5,62.5-85.1,85.8L94.7,106.5z"/>
	<path class="st0" d="M93.1,104.1C75.4,129,64.6,161.5,38.8,183c-6,5-14,5.9-21.1,3.1c-7.3-3.1-9.1-12.1-6.5-18.8
		C26,129.8,71.5,116.6,83,77.9c0.2-0.9-1.2-2.1-3.2-1.4c-20.7,6.5-25.1,35.4-46.4,41.7c-5.1,1.5-11.2,0.7-14.6-4
		c-5.1-7.3-1.3-16.4,3.5-22.2C34.8,77.1,52,70,68.9,61.3c3.7-1.9,8.2-4.3,11.9-6.2c17.8-9.2,30.8-23.3,50.2-23.6
		c2,0.4,3.4,3.6,2.1,5.8C120.7,57,110,73.8,98.6,93.6C98.3,94.3,92.7,103.6,93.1,104.1"/>
	<path class="st0" d="M170.9,132.8c3.7-5.1,7.3-11.1,7.6-16.8c0.1-3.3-0.1-3.9-3.5-3.7c-5.2,0.4-21,18.9-19.3,29.8
		c0.3,1.8,6.5-0.7,7.1-1.1C165.8,138.7,169.1,135.3,170.9,132.8z M202.8,167.5c-10.9,2.6-24.8,16.3-40,14.9
		c-10.1-1-20.1-3.4-25.6-10.7c-2-2.7-8.9,3.2-13.6,0.7c-6.3-3.4-4.5-7-1.7-10.1c3.1-3.6,12-3.7,12.6-10.3
		c2.4-26.4,20.2-51.4,46.4-57.9c10.5-2.6,18.4,6.1,17.6,15.2c-1.9,21.3-12.7,34-32.8,49.1c-1.9,1.5,0.3,3,1.7,3
		c13.9,0.2,31.6-15.2,33.1-19.5c2.4-6.7,4.5-17.9,6.5-23.6"/>
	<path class="st1" d="M94.7,106.5c3,4.5,3.3,10,1.8,15c-6.5,24.2-26.1,49.6-12,74.4c7.3,12.7,29.2,12.7,38.2,3
		c6.8-7.2-6.5,1.8-8.9-10.7c-4.9-25.8,20.4-53.2,7.5-83.2c33.5-22.7,71.2-41.6,92.1-79.3c2.5-4.5,3.7-10.6,1.3-15.4
		c-2.9-6-8.8-9.7-16-8c-5.4,1.3-10.1,4.9-13.6,8.8c-25.5,29.1-49.5,62.5-85.1,85.8L94.7,106.5z"/>
	<path class="st1" d="M93.1,104.1C75.4,129,64.6,161.5,38.8,183c-6,5-14,5.9-21.1,3.1c-7.3-3.1-9.1-12.1-6.5-18.8
		C26,129.8,71.5,116.6,83,77.9c0.2-0.9-1.2-2.1-3.2-1.4c-20.7,6.5-25.1,35.4-46.4,41.7c-5.1,1.5-11.2,0.7-14.6-4
		c-5.1-7.3-1.3-16.4,3.5-22.2C34.8,77.1,52,70,68.9,61.3c3.7-1.9,8.2-4.3,11.9-6.2c17.8-9.2,30.8-23.3,50.2-23.6
		c2,0.4,3.4,3.6,2.1,5.8C120.7,57,110,73.8,98.6,93.6C98.3,94.3,92.7,103.6,93.1,104.1"/>
	<path class="st1" d="M170.9,132.8c3.7-5.1,7.3-11.1,7.6-16.8c0.1-3.3-0.1-3.9-3.5-3.7c-5.2,0.4-21,18.9-19.3,29.8
		c0.3,1.8,6.5-0.7,7.1-1.1C165.8,138.7,169.1,135.3,170.9,132.8z M202.8,167.5c-10.9,2.6-24.8,16.3-40,14.9
		c-10.1-1-20.1-3.4-25.6-10.7c-2-2.7-8.9,3.2-13.6,0.7c-6.3-3.4-4.5-7-1.7-10.1c3.1-3.6,12-3.7,12.6-10.3
		c2.4-26.4,20.2-51.4,46.4-57.9c10.5-2.6,18.4,6.1,17.6,15.2c-1.9,21.3-12.7,34-32.8,49.1c-1.9,1.5,0.3,3,1.7,3
		c13.9,0.2,31.6-15.2,33.1-19.5c2.4-6.7,4.5-17.9,6.5-23.6"/>
	<g>
		<path class="st1" d="M404.1,223.2c8.7-6.5,14.9-16.3,19.1-23.2c1.1-1.9-1.7,0.3-6.1,1.5c-5.3,1.5-26.9,16.1-24.1,24.6
			c0.1,0.1,1.9,1.5,2.3,1.5C398.8,227.4,401.2,225.3,404.1,223.2z M521.1,170.1c10.9-8,16.7-27.2,12.8-41.1
			c-7.7,2.9-21.3,14.4-30.4,23.1c-10.8,10.5-1.7,2.3,3.9,3.8c5.1,1.5,12.4,8.8,8.8,12.5C515,169.9,518.8,171.8,521.1,170.1z
			 M475.3,96.8c5.2-0.3,6.9,9,2.3,10.9c-15.4,6.5-43.2,14.1-44.1,37.9c-0.2,1.8,3.7,6.2,9.2,3.9c12.5-5.5,17.7-24.6,35.2-38.5
			c8.1-6.3,16.4,2.8,13.3,11.1c-3.9,10.5-9.6,19.8-15.7,29.3c-2.9,4.6,3.1,1.8,4.5,1c31.5-19.3,41.6-42.9,76.3-56
			c6.2-2.3,13.5-1.6,18.9,4.2c2.2,2.4,3.2,5.9,1.6,9.5c-2.5,5.5-9.2,4.4-14.7,5.4c-2,0.3-4.2,2.9-4.8,5.1
			c-3.8,12.7,0.8,26.1-3.1,38.6c-3.9,12.2-10.6,22.5-21.8,30.4c-10.2,7.3-22.7,8.8-34.6,5.1c-3.7-1.2-6.6-3.5-9.2-6.5
			c-15.6-18.6,9.5-29.9-4.7-21.7c-11.7,6.7-21.4,12.1-28.8,21.4c-12.8,16.4-22.9,33.1-38,45.9c-10.9,9.5-22.3,17.6-37.8,14
			c-6.2-1.4-9.7-7.1-9.9-11.7c-1.2-38,50-46.8,70.9-64.6c-2.1-1-12.2,6.6-20.9,6.2c-4.3-0.2-11-0.9-14.5-6.3
			c-5.8-9.4-4.6-19.2,0-27.7C418.5,118.3,445.2,98.4,475.3,96.8z"/>
		<path class="st1" d="M495.5,109.1 M483,111.3 M431.9,121.4c-9,0.9-16,0.6-22.2-3.2c-1.8-1.2-4.4,4.7-4.9,9.1
			c-2.5,22.9-19.2,42.2-37.7,53.3c-8.1,4.9-16.8,5.7-25.8,2.7c-9.1-3-14.8-11.6-15.6-20.1c-3.2-31.9,22.6-60.6,54-65.7
			c5.3-0.9,9.2,1.2,11.6,6.9l-1.2,1.2c-14.7,4.9-25.4,19.7-30.2,30.6c-2.3,5.3-6.7,20.4,4.9,18.1c17.9-3.5,26.9-28.9,23.8-41.2
			l0.3-4c4.8-3.3,10-7.7,11-7.7h0.3c6.5-0.4,19.3,5.3,28.5,6.1c23.1,2.1,34.8-13.8,53.5-9.7c1.6,0.4,2.8,1.6,4.1,2.6
			c1.6,1.1,2,4.7,1.3,4.5c-0.1,0-1.1,0.1-1.5,0.2"/>
	</g>
</g>
<path class="st1" d="M387,32.2c-0.8-7.7-5.3-10.1-10.3-9.5c-48.4,5.8-89.6,80-96.9,118.6c-0.8,4-6.4,6.6-9,8.7l6.8,18.8
	c1.2-1.1,3.1-6.6,2.8,3.4c-0.2,6.6,7.4,13.9,15.3,15.8c16.8,4.1,34.5-10.5,34.8-28.3c-3.7,0.3-8.2,2.9-13,2.4
	c-11.1-1.2-12.1-11.5-8.3-15.5c20.9-21.6,42.5-38.7,59.3-67C378.1,63.5,388.9,52.2,387,32.2z M336.1,93.3
	c-6.9,9.3-19.5,22.3-24,23.9c-0.6,0.3,0-3.5,0.6-5.1c9.3-28.3,35.4-56.5,42.5-56.3C361.5,56.5,347.4,78.1,336.1,93.3z"/>
<path class="st1" d="M193,221.6c8.7-6.5,14.9-16.3,19.1-23.2c1.1-1.9-1.7,0.3-6.1,1.5c-5.3,1.5-26.9,16.1-24.1,24.6
	c0.1,0.1,1.9,1.5,2.3,1.5C187.7,225.7,190.2,223.7,193,221.6z M277.7,168.7c-3.8,5.7-26.2,8-33.6,17.3c-12.8,16.4-22.9,33.1-38,45.9
	c-10.9,9.5-22.3,17.6-37.8,14c-6.2-1.4-9.7-7.1-9.9-11.7c-1.2-38,50-46.8,70.9-64.6c-2.1-1-12.2,6.6-20.9,6.2
	c-4.3-0.2-11-0.9-14.5-6.3c-5.8-9.4-4.7-19.2,0-27.7c12.8-23.3,8.3-32,24.1-37c7.7-2.4,13.1,6.4,8.5,15.8
	c-3.6,7.3-10.8,15.3-6.5,25.3c-0.2,1.8,6.2,4.3,11.7,2c16.6-7.3,20.9-27.2,35.2-38.5c8.1-6.3,16.4,2.8,13.3,11.1
	c-3.9,10.5-9.6,19.8-15.7,29.3c-2.9,4.6,5.1,1.2,6.4,0.2"/>
</svg>
